<svg width="20" height="20" viewBox="0 0 20 20" fill="none" xmlns="http://www.w3.org/2000/svg">
<path fill-rule="evenodd" clip-rule="evenodd" d="M7.875 4.625C7.875 4.07272 7.42728 3.625 6.875 3.625C6.32272 3.625 5.875 4.07272 5.875 4.625V15.375C5.875 15.9273 6.32272 16.375 6.875 16.375H13.125C13.6773 16.375 14.125 15.9273 14.125 15.375C14.125 14.8227 13.6773 14.375 13.125 14.375H7.875V4.625ZM8.875 4.87499C8.59886 4.87499 8.375 5.09885 8.375 5.37499C8.375 5.65113 8.59886 5.87499 8.875 5.87499H10.875C11.1511 5.87499 11.375 5.65113 11.375 5.37499C11.375 5.09885 11.1511 4.87499 10.875 4.87499H8.875ZM8.375 11.375C8.375 11.0988 8.59886 10.875 8.875 10.875H11.875C12.1511 10.875 12.375 11.0988 12.375 11.375C12.375 11.6511 12.1511 11.875 11.875 11.875H8.875C8.59886 11.875 8.375 11.6511 8.375 11.375ZM8.875 6.87499C8.59886 6.87499 8.375 7.09885 8.375 7.37499C8.375 7.65113 8.59886 7.87499 8.875 7.87499H11.875C12.1511 7.87499 12.375 7.65113 12.375 7.37499C12.375 7.09885 12.1511 6.87499 11.875 6.87499H8.875ZM8.375 13.375C8.375 13.0988 8.59886 12.875 8.875 12.875H10.875C11.1511 12.875 11.375 13.0988 11.375 13.375C11.375 13.6511 11.1511 13.875 10.875 13.875H8.875C8.59886 13.875 8.375 13.6511 8.375 13.375ZM8.875 8.87499C8.59886 8.87499 8.375 9.09885 8.375 9.37499C8.375 9.65113 8.59886 9.87499 8.875 9.87499H10.875C11.1511 9.87499 11.375 9.65113 11.375 9.37499C11.375 9.09885 11.1511 8.87499 10.875 8.87499H8.875Z" fill="url(#paint0_linear_1709_10625)"/>
<defs>
<linearGradient id="paint0_linear_1709_10625" x1="17.7" y1="15.865" x2="-0.4723" y2="12.0955" gradientUnits="userSpaceOnUse">
<stop stop-color="#65BAB1"/>
<stop offset="1" stop-color="#417DD9"/>
</linearGradient>
</defs>
</svg>
