<svg width="460" height="462" viewBox="0 0 460 462" fill="none" xmlns="http://www.w3.org/2000/svg">
<mask id="mask0_1770_10758" style="mask-type:luminance" maskUnits="userSpaceOnUse" x="0" y="0" width="557" height="473">
<path d="M0.00012207 0H556.39V472.13H0.00012207V0Z" fill="white"/>
</mask>
<g mask="url(#mask0_1770_10758)">
<path d="M352.44 159.78C352.42 155.08 354.1 142.62 354.94 137.99C350.11 136.93 348.17 136.16 346.65 133.06C345.12 129.96 344.26 126.38 344.3 122.92C344.44 108.78 345.72 102.19 351.3 89.2C353.24 84.69 355.64 80.34 358.86 76.63C366.83 67.46 379.79 62.95 391.75 65.09C403.71 67.22 414.28 75.86 418.86 87.12C423.44 98.38 421.94 111.87 415.11 121.92C410.57 128.6 403.99 133.64 397.11 137.89C396.01 138.57 394.87 139.26 394.09 140.28C393.11 141.56 392.8 143.21 392.51 144.79C391.14 152.3 389.78 159.8 388.41 167.31L352.44 159.78Z" fill="#F2A285"/>
<path d="M133.74 156.84C129.31 153.36 127.96 151.72 122.8 149.39C120.22 148.23 112.32 148.85 109.58 149.57C107.94 150 106.18 150.31 104.71 151.2C102.96 152.25 104.51 154.24 105.79 154.94C108.01 156.16 111.18 155.68 113.61 155.6C116.41 155.51 118.61 155.65 121.14 156.85C125.01 158.69 125.56 160 125.56 162.88C125.56 165.43 123.11 166.24 120.81 165.13C116.62 163.11 114.57 160.04 112.69 157.92C110.5 155.45 107.7 155.25 107.39 157.9C107.24 159.16 107.3 160.46 107.55 161.69C108.21 164.98 110.02 167.92 112.09 170.56C117.78 177.82 126.26 182.38 135.35 183.9C140.89 184.83 154.38 190.8 156.69 191.34C161 192.35 159.15 188.86 163.23 185.26C165.82 182.98 167.08 175.14 165.05 172.39C162.74 169.25 147.06 168.33 144.23 165.66C139.85 161.55 138.47 160.54 133.74 156.84Z" fill="#F2A285"/>
<path d="M422.89 364.44C422.76 357.72 422.64 351 422.51 344.29C428.17 344.75 432.18 339.96 434.05 335.63C437.67 327.24 438.46 318.23 438.32 309.34C437.91 283.8 434.36 257.36 423.31 233.48C413.02 211.26 398.44 188.05 366.95 181.68C349.36 178.12 329.74 181.94 316.11 191.58C303.65 200.39 296.65 213.13 291.32 225.78C281.12 249.97 275.65 275.48 275.59 301.03C275.58 307.21 275.9 313.5 278.47 319.32C281.04 325.14 286.19 330.5 293.36 332.67C291.95 342.1 290.96 351.58 290.38 361.07L422.89 364.44Z" fill="#65B7AB"/>
<path d="M449.29 542.71C449.78 487.14 443.03 427.77 432.81 375.89L426.54 375.14L424.55 351.94L288.63 335.78L277.9 359.34L271.03 358.2C253.27 423.05 247.1 482.86 241.83 538.81C297.4 540.89 384.85 542.27 440.45 542.71" fill="#F2B872"/>
<path d="M385.73 188.82C414.02 204.86 436.82 229.39 454.52 256.67C472.22 283.95 485.12 314.04 496.92 344.34C498.49 348.37 499.56 353.96 495.84 356.16C497.35 360.5 498.86 364.83 500.36 369.17C500.64 369.96 500.91 370.81 500.69 371.62C500.4 372.66 499.37 373.29 498.43 373.82C489.68 378.72 480.93 383.62 472.18 388.51C468.65 384.51 465.57 380.11 463.04 375.41C460.72 377.45 456.98 376.98 454.47 375.18C451.96 373.39 450.38 370.59 448.88 367.89C428.14 330.59 405.98 294.08 382.47 258.46C376.43 249.31 376.64 236.28 376.02 225.34C375.41 214.4 376.76 203.13 381.63 193.31C382.68 191.2 383.67 187.65 385.73 188.82Z" fill="#65B7AB"/>
<path d="M366.91 181.7C305.51 167.84 242.15 165.59 179.23 163.91C177.25 163.86 175.19 163.82 173.4 164.66C171.61 165.5 170.2 167.51 170.71 169.42C166.06 169.15 161.4 168.87 156.75 168.6C155.47 181 155.23 193.5 156.04 205.94C161.54 205.62 168.22 205.9 170.94 210.69C171.51 211.69 171.86 212.84 172.67 213.64C173.48 214.44 174.61 214.78 175.7 215.08C229.07 230.18 284.81 236.89 340.23 234.89C342.49 234.81 344.81 234.7 346.85 233.73C348.74 232.84 350.23 231.28 351.63 229.74C356.48 224.41 360.94 218.73 364.97 212.76C369.49 206.07 373.61 198.14 371.85 190.27C370.44 183.9 371.64 186.19 366.91 181.7Z" fill="#65B7AB"/>
<path d="M397.77 184.73C398.51 180.09 399.24 175.41 398.97 170.72C398.88 169.27 398.68 167.76 397.85 166.58C396.91 165.23 395.32 164.51 393.79 163.89C376.42 156.89 359.03 151.86 340.33 150.8C339.3 150.74 338.14 150.72 337.37 151.42C336.72 152 336.54 152.93 336.39 153.79C335.68 158.03 333.42 166.17 332.99 170.44C332.95 170.83 333.05 171.21 333.15 171.59C333.74 173.82 335.54 173.69 338.93 175.19C339.65 177.56 337.55 177.96 338.67 180.16C339.03 180.86 339.66 181.38 340.27 181.87C349.29 189 359.58 194.5 370.51 198.05C375.34 199.62 383.58 202.42 388.59 200.28C392.76 198.5 391.94 193.51 392.35 189.73C396.66 190.53 397.54 186.22 397.77 184.73Z" fill="#65B7AB"/>
<path d="M397.67 185.3C397.55 185.67 395.58 185.56 392.41 185.1C391.77 185.01 393.03 172.63 392.3 172.51C391.69 172.41 389.11 184.58 388.44 184.46C387.11 184.23 385.67 183.97 384.15 183.68C383.42 183.54 383.93 175.11 383.16 174.96C382.14 174.76 379.82 182.84 378.75 182.62C376.41 182.14 373.97 181.63 371.47 181.08C370.74 180.92 373.03 167.27 372.29 167.11C371.62 166.96 367.93 180.3 367.26 180.15C365.09 179.66 362.91 179.16 360.76 178.65C360.09 178.49 361.32 171 360.65 170.84C359.86 170.65 357.17 177.8 356.39 177.61C354.02 177.04 351.73 176.46 349.56 175.9C348.84 175.71 350.93 162.4 350.23 162.22C349.38 162 345.76 174.9 344.96 174.68C342.61 174.04 340.5 173.43 338.74 172.88C338.06 172.67 340.26 157.79 339.68 157.59C339.12 157.4 335.78 171.89 335.33 171.72C333.92 171.18 333.09 170.74 333.01 170.43C333.01 170.43 332.45 172.75 336.38 174.18C340.32 175.61 339.09 176.19 339.09 176.19C339.09 176.19 344.56 186.03 364.94 191.3C384.29 196.31 392.21 192.25 392.21 192.25L392.37 189.72C392.36 189.72 396.8 191.03 397.67 185.3Z" fill="#3F9385"/>
<path d="M287.97 234.21C287.97 234.21 296.17 215.37 302 206.45C302 206.45 288.96 224.29 283.47 226.7C277.98 229.1 195.72 220.34 195.72 220.34C195.72 220.34 245.46 233.26 287.97 234.21Z" fill="#3F9385"/>
<path d="M432.31 338.79L389.2 268.75C389.2 268.75 414.51 318.46 418.58 325.94C421.68 331.63 420.72 340.73 399.79 339.13C378.86 337.52 293.35 332.67 293.35 332.67L292.86 336.06L422.65 351.71L422.44 345.76C422.44 345.76 429.82 345.88 432.31 338.79Z" fill="#3F9385"/>
<path d="M171.09 175.7L172.66 213.64C172.66 213.64 169.92 208.45 167.62 207.53L158.86 203.28L168 205.47L168.51 198.52L158.86 197.1L168.77 195.56L169.41 186.17L162.59 185.14L169.67 183.85L171.09 175.7Z" fill="#3F9385"/>
<path d="M498.09 348.29C498.24 352.47 461.28 376.89 456.44 376.23C456.44 376.23 459.13 377.2 463.86 376.9L467.69 374.54L473.48 382L469.75 373.64L476.31 368.75L481.97 376.73L478.62 367.85L484.54 364.44L489.17 371.33L486.47 363.48L495.83 356.17C495.85 356.16 499.28 354.2 498.09 348.29Z" fill="#3F9385"/>
<path d="M426.54 375.14L277.89 359.34L296.42 357.43L300.03 343.53L299.25 357.17L306.2 357.94L308.52 348.29L309.29 357.94L330.91 359.98L333.48 344.82L333.74 359.98L338.37 361.03L340.95 348.29L341.2 361.29L363.59 364.44L366.43 348.29L367.2 364.44L372.6 365.15L375.88 352.8V365.15L409.92 369.27L412.75 355.11V369.27H417.38L419.96 358.2L422.27 369.78L426.25 371.83L426.54 375.14Z" fill="#F9A64B"/>
<path d="M122.19 160.29L27.4902 135.07" stroke="#3A2120" stroke-miterlimit="10"/>
<path d="M156.25 168.96L152.69 186.87L141.66 185.52L155.54 191.24L156.68 169.24L156.25 168.96Z" fill="#D9674E"/>
<path d="M354.94 137.99L371.45 137.26C371.45 137.26 362.97 144.5 354.09 143.46L354.94 137.99Z" fill="#D9674E"/>
<path d="M392.5 122.73C392.5 122.73 384.06 130.23 385.39 141.08C386.58 150.77 390.98 153.17 390.98 153.17L396.1 124.35L392.5 122.73Z" fill="#D9674E"/>
<path d="M413.53 156.21C417.26 152.65 418.57 146.67 416.36 142.02C424.68 144.04 434.26 141.95 439.89 135.51C445.52 129.07 445.91 118.17 439.72 112.26C442.85 111.52 445.83 109.33 446.63 106.22C447.42 103.1 445.27 99.31 442.06 99.12C447.52 92.03 449.35 82.28 446.83 73.69C444.42 65.47 438.32 58.64 430.97 54.26C422.28 49.08 410.96 47.22 402.05 52.01C401.2 47.13 396.52 43.87 391.92 42.03C384.34 39.01 375.66 38.36 367.99 41.15C362.26 43.23 357.19 47.34 354.18 52.67C351.61 57.22 350.22 63.16 350.61 68.31C350.96 73.06 352.6 77.92 355.98 81.51C358.91 84.63 364.24 85.82 367.52 83.07C367.88 87.51 370.72 91.68 374.72 93.65C378.72 95.62 383.75 95.33 387.49 92.91C387.7 95.44 388.07 98.02 389.19 100.3C390.31 102.58 392.32 104.55 394.81 105.07C394.25 108.86 393.53 112.62 392.65 116.35C393.2 116.79 393.75 117.22 394.3 117.66C396.18 114.4 397.84 111.01 399.27 107.52C402.51 108.42 405.71 110.21 407.29 113.18C408.87 116.15 408.2 120.43 405.24 122.04C403.65 122.9 401.76 122.89 399.97 123.16C381.49 125.98 383.39 154.21 399.37 159.28C404.16 160.79 409.83 159.73 413.53 156.21Z" fill="#3A2120"/>
<path d="M392.5 122.73C394.9 125.77 399.05 127.3 402.84 126.55C406.63 125.8 409.9 122.81 410.96 119.09C411.52 117.15 411.51 115.07 411.2 113.07C410.87 110.95 410.17 108.81 408.7 107.26C406.59 105.05 402.96 104.47 400.27 105.91C398.63 106.79 398.57 109.1 398.02 110.88C398.98 111.31 399.86 112.02 400.22 113C400.58 113.99 400.25 115.25 399.32 115.74C398.91 115.95 398.43 116 397.97 116.01C397.14 116.02 396.31 115.91 395.51 115.69C394.57 117.92 393.45 120.51 392.5 122.73Z" fill="#D9674E"/>
<path d="M357.3 98.99C355.35 105.53 357.32 111.89 361.71 113.2C366.1 114.51 371.23 110.27 373.18 103.73C375.13 97.19 373.16 90.83 368.77 89.52C364.39 88.21 359.25 92.45 357.3 98.99Z" fill="white"/>
<path d="M343.68 106.54C339.981 105.436 338.562 99.2424 340.513 92.7061C342.463 86.1699 347.042 81.7659 350.742 82.8696C354.441 83.9733 355.86 90.1667 353.91 96.703C351.96 103.239 347.38 107.643 343.68 106.54Z" fill="white"/>
<path d="M372.95 97.34C380.81 100.3 388.72 103.13 396.67 105.84" stroke="#3A2120" stroke-miterlimit="10" stroke-linecap="round" stroke-linejoin="round"/>
<path d="M347.85 114.65C347.7 115.32 347.46 115.94 347.62 116.52C348.3 118.99 351.76 118.79 352.67 116.67C353.63 114.42 353.92 111.95 354.26 109.52C355.09 103.56 356.29 97.66 357.86 91.85C357.96 91.46 358.25 89.94 357.82 89.79C357.36 89.63 356.84 91.02 356.71 91.35C355.91 93.41 348.86 110.17 347.85 114.65Z" fill="#D9674E"/>
<path d="M359.94 95.97C359.63 94.45 358.94 93.08 357.58 92.32C356.23 91.56 354.04 91.52 353.01 93.19" stroke="#3A2120" stroke-miterlimit="10" stroke-linecap="round" stroke-linejoin="round"/>
<path d="M356.79 117.6C356.52 119.21 355.98 120.82 354.94 122.07C353.89 123.32 352.28 124.18 350.65 124.02C346.57 123.63 345.6 118.85 345.58 115.55" stroke="#3A2120" stroke-miterlimit="10" stroke-linecap="round" stroke-linejoin="round"/>
<path d="M432.81 375.89L438.33 515.96H420.73L418.16 439.24L415.59 511.84L388.31 512.87L384.71 462.94L379.56 512.35L349.71 511.32V496.91L345.59 511.32L449.19 523.13C449.18 523.13 442.83 416.48 432.81 375.89Z" fill="#F9A64B"/>
<path d="M493.7 353.96C471.11 292.76 436.49 234.46 385.45 193.82" stroke="#3A2120" stroke-miterlimit="10" stroke-linecap="round" stroke-linejoin="round"/>
<path d="M489.31 357.37C465.04 296.91 430.25 239.24 379.83 197.97" stroke="#3A2120" stroke-miterlimit="10" stroke-linecap="round" stroke-linejoin="round"/>
<path d="M340.8 178.78C284.68 171.64 228.17 167.62 171.6 166.72" stroke="#3A2120" stroke-miterlimit="10" stroke-linecap="round" stroke-linejoin="round"/>
<path d="M347.56 184.06C281.07 175.7 232.51 172.76 171.51 170.97" stroke="#3A2120" stroke-miterlimit="10" stroke-linecap="round" stroke-linejoin="round"/>
<path d="M387.2 274.56C377.49 280.29 365.93 282.83 354.71 281.7C343.49 280.57 332.67 275.77 324.31 268.21" stroke="#3A2120" stroke-miterlimit="10" stroke-linecap="round" stroke-linejoin="round"/>
<path d="M369.27 285.48C365.51 285.98 361.72 286.22 357.93 286.21" stroke="#3A2120" stroke-miterlimit="10" stroke-linecap="round" stroke-linejoin="round"/>
<path d="M417.8 413.01C418.91 445.27 420.02 477.53 421.13 509.79" stroke="#3A2120" stroke-miterlimit="10" stroke-linecap="round" stroke-linejoin="round"/>
<path d="M384.03 446.32C385.14 465.07 386.25 483.83 387.36 502.58" stroke="#3A2120" stroke-miterlimit="10" stroke-linecap="round" stroke-linejoin="round"/>
<path d="M301.07 390.39C296.38 416.62 290.66 442.68 283.94 468.46" stroke="#3A2120" stroke-miterlimit="10" stroke-linecap="round" stroke-linejoin="round"/>
<path d="M412.65 354.58C411.97 358.96 411.3 363.33 410.62 367.71" stroke="#3A2120" stroke-miterlimit="10" stroke-linecap="round" stroke-linejoin="round"/>
<path d="M365.63 350.48C365.3 353.74 364.98 357 364.65 360.26" stroke="#3A2120" stroke-miterlimit="10" stroke-linecap="round" stroke-linejoin="round"/>
<path d="M341.04 354.86C341.06 356.23 341.08 357.6 341.11 358.97" stroke="#3A2120" stroke-miterlimit="10" stroke-linecap="round" stroke-linejoin="round"/>
<path d="M300.54 344.3C300.17 347.63 300 350.99 300.03 354.34" stroke="#3A2120" stroke-miterlimit="10" stroke-linecap="round" stroke-linejoin="round"/>
<path d="M426.92 375.07C405.03 373.15 325.58 363.83 303.88 362.1" stroke="#3A2120" stroke-miterlimit="10" stroke-linecap="round" stroke-linejoin="round"/>
<path d="M391.42 192.96C374.59 195.01 357.06 190.74 343.06 181.18" stroke="#3A2120" stroke-miterlimit="10" stroke-linecap="round" stroke-linejoin="round"/>
<path d="M386.93 188.93C374.16 187.39 361.58 184.34 349.52 179.87" stroke="#3A2120" stroke-miterlimit="10" stroke-linecap="round" stroke-linejoin="round"/>
<path d="M351.24 158.58C349.56 162.41 348.19 166.37 347.12 170.42" stroke="#3A2120" stroke-miterlimit="10" stroke-linecap="round" stroke-linejoin="round"/>
<path d="M372.88 164.76C372.48 169.11 372.08 173.45 371.68 177.8" stroke="#3A2120" stroke-miterlimit="10" stroke-linecap="round" stroke-linejoin="round"/>
<path d="M392.23 170.76C391.23 173.9 390.49 177.12 390.02 180.37" stroke="#3A2120" stroke-miterlimit="10" stroke-linecap="round" stroke-linejoin="round"/>
</g>
</svg>
