<svg width="422" height="441" viewBox="0 0 422 441" fill="none" xmlns="http://www.w3.org/2000/svg">
<path d="M419.007 27.365L361.06 167.698" stroke="#29314A" stroke-width="4" stroke-miterlimit="10" stroke-linecap="round" stroke-linejoin="round"/>
<path d="M303.458 171.111L325.446 126.674L369.422 99.584L382.529 112.702L411.706 115.249L399.02 171.111L370.262 176.613L359.343 201.588L303.458 171.111Z" fill="#FFB1A5"/>
<path d="M303.458 171.111L359.343 201.588L368.558 180.532L314.712 148.385L303.458 171.111Z" fill="#E2837F"/>
<path d="M382.529 112.702L392.251 121.592C392.251 121.592 384.641 128.788 379.144 127.935C373.647 127.082 366.878 120.356 366.878 120.356" stroke="#E2837F" stroke-miterlimit="10" stroke-linecap="round" stroke-linejoin="round"/>
<path d="M342.086 144.021C342.086 144.021 366.149 146.914 374.981 126.427" stroke="#E2837F" stroke-miterlimit="10" stroke-linecap="round" stroke-linejoin="round"/>
<path d="M386.445 125.895L408.507 129.332" stroke="#E2837F" stroke-miterlimit="10" stroke-linecap="round" stroke-linejoin="round"/>
<path d="M369.015 135.304L404.9 145.232" stroke="#E2837F" stroke-miterlimit="10" stroke-linecap="round" stroke-linejoin="round"/>
<path d="M364.592 138.877L354.76 155.878L372.523 167.438" stroke="#E2837F" stroke-miterlimit="10" stroke-linecap="round" stroke-linejoin="round"/>
<path d="M362.122 144.169L401.367 160.762" stroke="#E2837F" stroke-miterlimit="10" stroke-linecap="round" stroke-linejoin="round"/>
<path d="M53.4002 119.478C53.4002 119.478 17.12 123.138 8.21361 142.327C8.21361 142.327 -46.9294 163.21 -62.148 191.981C-76.4526 219.034 -146.505 301.379 -137.142 380.497C-135.808 391.773 -130.644 402.332 -122.232 409.949C-111.769 419.42 -94.1171 430.115 -67.7933 430.115V466.23H227.056L218.039 388.917C218.039 388.917 254.121 420.52 295.837 387.792C337.552 355.064 366.878 190.856 366.878 190.856L307.115 155.866L253.553 255.187L188.713 183.524C188.713 183.524 158.263 148.534 110.347 137.257C110.371 137.257 115.955 123.719 53.4002 119.478Z" fill="#00857C"/>
<path d="M38.3423 128.368L56.5256 466.243H113.608L80.5148 128.368H38.3423Z" fill="#005683"/>
<path d="M8.21376 142.327C8.21376 142.327 -6.47374 169.417 -4.36141 177.033C-2.24908 184.649 22.7036 193.959 22.7036 193.959" stroke="#29314A" stroke-miterlimit="10" stroke-linecap="round" stroke-linejoin="round"/>
<path d="M14.316 199.462C14.316 199.462 -6.89375 215.968 -2.66908 226.972C1.55558 237.976 43.4193 330.237 43.4193 330.237" stroke="#29314A" stroke-miterlimit="10" stroke-linecap="round" stroke-linejoin="round"/>
<path d="M110.372 137.258C110.372 137.258 132.644 169.849 132.644 177.886C132.644 185.923 102.626 191.425 102.626 191.425" stroke="#29314A" stroke-miterlimit="10" stroke-linecap="round" stroke-linejoin="round"/>
<path d="M111.496 193.959C111.496 193.959 133.064 222.743 132.631 231.2C132.211 239.67 101.342 318.813 102.614 330.237" stroke="#29314A" stroke-miterlimit="10" stroke-linecap="round" stroke-linejoin="round"/>
<path d="M218.051 388.93C218.051 388.93 201.98 260.837 195.643 245.172" stroke="#29314A" stroke-miterlimit="10" stroke-linecap="round" stroke-linejoin="round"/>
<path d="M253.566 255.187C253.566 255.187 234.542 281.572 242.152 304.841" stroke="#29314A" stroke-miterlimit="10" stroke-linecap="round" stroke-linejoin="round"/>
<path d="M40.64 171.148L64.2092 154.011L84.6161 170.27" stroke="#EEEEEE" stroke-miterlimit="10" stroke-linecap="round" stroke-linejoin="round"/>
<path d="M69.632 173.658L76.3643 163.692L64.2092 154.011L50.8928 163.692L59.7374 174.375L55.6486 358.452L73.9802 371.422L90.9654 356.672L69.632 173.658Z" fill="#EEEEEE"/>
<path d="M293.836 180.507L361.06 219.801" stroke="#29314A" stroke-miterlimit="10" stroke-linecap="round" stroke-linejoin="round"/>
<path d="M37.0823 86.75L38.4905 139.792C38.4905 139.792 43.8516 151.921 62.455 152.206C81.046 152.49 80.7742 137.542 80.7742 137.542L79.366 86.75H37.0823Z" fill="#FFB1A5"/>
<path d="M37.0823 86.75L37.2429 92.8826C38.4411 96.2456 47.0757 116.857 80.453 125.932L79.366 86.75H37.0823Z" fill="#E2837F"/>
<path d="M92.4847 68.6983C92.003 67.0168 90.0389 64.2843 87.5683 61.3293C83.0595 39.8033 78.8843 9.6348 46.384 18.3392C23.5931 24.4347 22.889 46.9993 25.5448 62.9985C22.9137 61.7249 20.1837 61.5642 17.9849 62.8254C13.6738 65.3229 13.0808 72.3705 16.6508 78.5773C20.2331 84.7841 26.6319 87.8009 30.943 85.3034C31.2889 85.1055 31.5977 84.8706 31.8942 84.611C41.3194 103.231 69.8914 118.316 82.7384 109.747C94.9924 101.575 93.5471 88.8148 89.8659 71.7894C91.7559 71.2948 92.9665 70.3675 92.4847 68.6983Z" fill="#FFB1A5"/>
<path d="M89.9276 71.7646C85.7771 72.865 78.2419 71.7894 78.2419 71.7894L75.1413 71.4308C57.6991 74.4847 52.0663 85.5877 52.0663 85.5877C34.6735 72.9763 39.4787 58.7205 39.4787 58.7205L28.3612 64.4945C35.9705 73.8418 31.9188 84.5986 31.9188 84.5986C41.344 103.219 63.8756 121.938 84.3071 112.195C97.8211 105.766 96.1658 90.7189 89.9276 71.7646Z" fill="#29314A"/>
<path d="M25.5447 62.9861L34.2658 73.7676C34.2658 73.7676 44.6916 54.2941 39.0587 35.1173C39.0587 35.1173 46.668 38.7895 55.1297 35.1173C63.5914 31.4452 78.5383 30.7528 80.4653 35.1173C80.4653 35.1173 92.3487 25.8071 89.2482 14.5186C86.1476 3.23017 55.6979 -9.73981 37.0946 12.256L30.0535 22.6913C30.0535 22.6913 22.4441 16.7813 12.7472 26.5613C5.12549 34.2518 7.7937 57.1131 16.1195 64.4822C16.0824 64.5069 18.5159 60.3773 25.5447 62.9861Z" fill="#29314A"/>
<path d="M79.3288 56.2476C80.1688 63.4312 75.8824 69.8235 69.7554 70.5406C63.6284 71.2577 57.9832 66.0153 57.1432 58.8441C56.3032 51.6605 60.5896 45.2683 66.7166 44.5512C72.8436 43.834 78.4889 49.0764 79.3288 56.2476Z" stroke="white" stroke-miterlimit="10"/>
<path d="M103.009 52.5384C103.849 59.722 100.959 65.9535 96.5611 66.4604C92.1635 66.9673 87.9141 61.5766 87.0742 54.393C86.2342 47.2094 89.1247 40.9779 93.5223 40.471C97.9323 39.9641 102.169 45.3548 103.009 52.5384Z" stroke="white" stroke-miterlimit="10"/>
<path d="M79.3289 56.2476L87.0864 54.4054" stroke="white" stroke-miterlimit="10"/>
<path d="M25.5447 62.9861L57.1432 58.8441" stroke="white" stroke-miterlimit="10"/>
<path d="M47.0757 437.644H-88.4347L-112.449 262.716H23.0494L47.0757 437.644Z" fill="#C98CD2"/>
</svg>
