<svg width="33" height="14" viewBox="0 0 33 14" fill="none" xmlns="http://www.w3.org/2000/svg">
<path fill-rule="evenodd" clip-rule="evenodd" d="M2.25 1.5C2.25 0.947715 1.80228 0.5 1.25 0.5C0.697715 0.5 0.25 0.947715 0.25 1.5V12.25C0.25 12.8023 0.697715 13.25 1.25 13.25H7.5C8.05228 13.25 8.5 12.8023 8.5 12.25C8.5 11.6977 8.05228 11.25 7.5 11.25H2.25V1.5ZM3.25 1.74999C2.97386 1.74999 2.75 1.97385 2.75 2.24999C2.75 2.52613 2.97386 2.74999 3.25 2.74999H5.25C5.52614 2.74999 5.75 2.52613 5.75 2.24999C5.75 1.97385 5.52614 1.74999 5.25 1.74999H3.25ZM2.75 8.24999C2.75 7.97385 2.97386 7.74999 3.25 7.74999H6.25C6.52614 7.74999 6.75 7.97385 6.75 8.24999C6.75 8.52613 6.52614 8.74999 6.25 8.74999H3.25C2.97386 8.74999 2.75 8.52613 2.75 8.24999ZM3.25 3.74999C2.97386 3.74999 2.75 3.97385 2.75 4.24999C2.75 4.52613 2.97386 4.74999 3.25 4.74999H6.25C6.52614 4.74999 6.75 4.52613 6.75 4.24999C6.75 3.97385 6.52614 3.74999 6.25 3.74999H3.25ZM2.75 10.25C2.75 9.97385 2.97386 9.74999 3.25 9.74999H5.25C5.52614 9.74999 5.75 9.97385 5.75 10.25C5.75 10.5261 5.52614 10.75 5.25 10.75H3.25C2.97386 10.75 2.75 10.5261 2.75 10.25ZM3.25 5.74999C2.97386 5.74999 2.75 5.97385 2.75 6.24999C2.75 6.52613 2.97386 6.74999 3.25 6.74999H5.25C5.52614 6.74999 5.75 6.52613 5.75 6.24999C5.75 5.97385 5.52614 5.74999 5.25 5.74999H3.25Z" fill="url(#paint0_linear_807_7995)"/>
<path d="M13.29 4.102C13.526 4.146 13.72 4.264 13.872 4.456C14.024 4.648 14.1 4.868 14.1 5.116C14.1 5.34 14.044 5.538 13.932 5.71C13.824 5.878 13.666 6.01 13.458 6.106C13.25 6.202 13.004 6.25 12.72 6.25H10.914V2.062H12.642C12.926 2.062 13.17 2.108 13.374 2.2C13.582 2.292 13.738 2.42 13.842 2.584C13.95 2.748 14.004 2.934 14.004 3.142C14.004 3.386 13.938 3.59 13.806 3.754C13.678 3.918 13.506 4.034 13.29 4.102ZM11.754 3.79H12.522C12.722 3.79 12.876 3.746 12.984 3.658C13.092 3.566 13.146 3.436 13.146 3.268C13.146 3.1 13.092 2.97 12.984 2.878C12.876 2.786 12.722 2.74 12.522 2.74H11.754V3.79ZM12.6 5.566C12.804 5.566 12.962 5.518 13.074 5.422C13.19 5.326 13.248 5.19 13.248 5.014C13.248 4.834 13.188 4.694 13.068 4.594C12.948 4.49 12.786 4.438 12.582 4.438H11.754V5.566H12.6ZM15.1955 2.53C15.0475 2.53 14.9235 2.484 14.8235 2.392C14.7275 2.296 14.6795 2.178 14.6795 2.038C14.6795 1.898 14.7275 1.782 14.8235 1.69C14.9235 1.594 15.0475 1.546 15.1955 1.546C15.3435 1.546 15.4655 1.594 15.5615 1.69C15.6615 1.782 15.7115 1.898 15.7115 2.038C15.7115 2.178 15.6615 2.296 15.5615 2.392C15.4655 2.484 15.3435 2.53 15.1955 2.53ZM15.6095 2.926V6.25H14.7695V2.926H15.6095ZM20.5674 2.878C20.9754 2.878 21.3034 3.004 21.5514 3.256C21.8034 3.504 21.9294 3.852 21.9294 4.3V6.25H21.0894V4.414C21.0894 4.154 21.0234 3.956 20.8914 3.82C20.7594 3.68 20.5794 3.61 20.3514 3.61C20.1234 3.61 19.9414 3.68 19.8054 3.82C19.6734 3.956 19.6074 4.154 19.6074 4.414V6.25H18.7674V4.414C18.7674 4.154 18.7014 3.956 18.5694 3.82C18.4374 3.68 18.2574 3.61 18.0294 3.61C17.7974 3.61 17.6134 3.68 17.4774 3.82C17.3454 3.956 17.2794 4.154 17.2794 4.414V6.25H16.4394V2.926H17.2794V3.328C17.3874 3.188 17.5254 3.078 17.6934 2.998C17.8654 2.918 18.0534 2.878 18.2574 2.878C18.5174 2.878 18.7494 2.934 18.9534 3.046C19.1574 3.154 19.3154 3.31 19.4274 3.514C19.5354 3.322 19.6914 3.168 19.8954 3.052C20.1034 2.936 20.3274 2.878 20.5674 2.878ZM23.5665 3.412C23.6745 3.252 23.8225 3.122 24.0105 3.022C24.2025 2.922 24.4205 2.872 24.6645 2.872C24.9485 2.872 25.2045 2.942 25.4325 3.082C25.6645 3.222 25.8465 3.422 25.9785 3.682C26.1145 3.938 26.1825 4.236 26.1825 4.576C26.1825 4.916 26.1145 5.218 25.9785 5.482C25.8465 5.742 25.6645 5.944 25.4325 6.088C25.2045 6.232 24.9485 6.304 24.6645 6.304C24.4165 6.304 24.1985 6.256 24.0105 6.16C23.8265 6.06 23.6785 5.932 23.5665 5.776V6.25H22.7265V1.81H23.5665V3.412ZM25.3245 4.576C25.3245 4.376 25.2825 4.204 25.1985 4.06C25.1185 3.912 25.0105 3.8 24.8745 3.724C24.7425 3.648 24.5985 3.61 24.4425 3.61C24.2905 3.61 24.1465 3.65 24.0105 3.73C23.8785 3.806 23.7705 3.918 23.6865 4.066C23.6065 4.214 23.5665 4.388 23.5665 4.588C23.5665 4.788 23.6065 4.962 23.6865 5.11C23.7705 5.258 23.8785 5.372 24.0105 5.452C24.1465 5.528 24.2905 5.566 24.4425 5.566C24.5985 5.566 24.7425 5.526 24.8745 5.446C25.0105 5.366 25.1185 5.252 25.1985 5.104C25.2825 4.956 25.3245 4.78 25.3245 4.576ZM29.8829 4.516C29.8829 4.636 29.8749 4.744 29.8589 4.84H27.4289C27.4489 5.08 27.5329 5.268 27.6809 5.404C27.8289 5.54 28.0109 5.608 28.2269 5.608C28.5389 5.608 28.7609 5.474 28.8929 5.206H29.7989C29.7029 5.526 29.5189 5.79 29.2469 5.998C28.9749 6.202 28.6409 6.304 28.2449 6.304C27.9249 6.304 27.6369 6.234 27.3809 6.094C27.1289 5.95 26.9309 5.748 26.7869 5.488C26.6469 5.228 26.5769 4.928 26.5769 4.588C26.5769 4.244 26.6469 3.942 26.7869 3.682C26.9269 3.422 27.1229 3.222 27.3749 3.082C27.6269 2.942 27.9169 2.872 28.2449 2.872C28.5609 2.872 28.8429 2.94 29.0909 3.076C29.3429 3.212 29.5369 3.406 29.6729 3.658C29.8129 3.906 29.8829 4.192 29.8829 4.516ZM29.0129 4.276C29.0089 4.06 28.9309 3.888 28.7789 3.76C28.6269 3.628 28.4409 3.562 28.2209 3.562C28.0129 3.562 27.8369 3.626 27.6929 3.754C27.5529 3.878 27.4669 4.052 27.4349 4.276H29.0129ZM31.336 1.81V6.25H30.496V1.81H31.336ZM11.754 11.584H13.134V12.25H10.914V8.062H11.754V11.584ZM14.0939 8.53C13.9459 8.53 13.8219 8.484 13.7219 8.392C13.6259 8.296 13.5779 8.178 13.5779 8.038C13.5779 7.898 13.6259 7.782 13.7219 7.69C13.8219 7.594 13.9459 7.546 14.0939 7.546C14.2419 7.546 14.3639 7.594 14.4599 7.69C14.5599 7.782 14.6099 7.898 14.6099 8.038C14.6099 8.178 14.5599 8.296 14.4599 8.392C14.3639 8.484 14.2419 8.53 14.0939 8.53ZM14.5079 8.926V12.25H13.6679V8.926H14.5079ZM17.1798 8.878C17.5758 8.878 17.8958 9.004 18.1398 9.256C18.3838 9.504 18.5058 9.852 18.5058 10.3V12.25H17.6658V10.414C17.6658 10.15 17.5998 9.948 17.4678 9.808C17.3358 9.664 17.1558 9.592 16.9278 9.592C16.6958 9.592 16.5118 9.664 16.3758 9.808C16.2438 9.948 16.1778 10.15 16.1778 10.414V12.25H15.3378V8.926H16.1778V9.34C16.2898 9.196 16.4318 9.084 16.6038 9.004C16.7798 8.92 16.9718 8.878 17.1798 8.878ZM22.3946 10.516C22.3946 10.636 22.3866 10.744 22.3706 10.84H19.9406C19.9606 11.08 20.0446 11.268 20.1926 11.404C20.3406 11.54 20.5226 11.608 20.7386 11.608C21.0506 11.608 21.2726 11.474 21.4046 11.206H22.3106C22.2146 11.526 22.0306 11.79 21.7586 11.998C21.4866 12.202 21.1526 12.304 20.7566 12.304C20.4366 12.304 20.1486 12.234 19.8926 12.094C19.6406 11.95 19.4426 11.748 19.2986 11.488C19.1586 11.228 19.0886 10.928 19.0886 10.588C19.0886 10.244 19.1586 9.942 19.2986 9.682C19.4386 9.422 19.6346 9.222 19.8866 9.082C20.1386 8.942 20.4286 8.872 20.7566 8.872C21.0726 8.872 21.3546 8.94 21.6026 9.076C21.8546 9.212 22.0486 9.406 22.1846 9.658C22.3246 9.906 22.3946 10.192 22.3946 10.516ZM21.5246 10.276C21.5206 10.06 21.4426 9.888 21.2906 9.76C21.1386 9.628 20.9526 9.562 20.7326 9.562C20.5246 9.562 20.3486 9.626 20.2046 9.754C20.0646 9.878 19.9786 10.052 19.9466 10.276H21.5246ZM22.7917 10.576C22.7917 10.24 22.8577 9.942 22.9897 9.682C23.1258 9.422 23.3078 9.222 23.5358 9.082C23.7678 8.942 24.0258 8.872 24.3098 8.872C24.5578 8.872 24.7738 8.922 24.9578 9.022C25.1458 9.122 25.2958 9.248 25.4078 9.4V8.926H26.2538V12.25H25.4078V11.764C25.2998 11.92 25.1498 12.05 24.9578 12.154C24.7698 12.254 24.5518 12.304 24.3038 12.304C24.0238 12.304 23.7678 12.232 23.5358 12.088C23.3078 11.944 23.1258 11.742 22.9897 11.482C22.8577 11.218 22.7917 10.916 22.7917 10.576ZM25.4078 10.588C25.4078 10.384 25.3678 10.21 25.2878 10.066C25.2078 9.918 25.0998 9.806 24.9638 9.73C24.8278 9.65 24.6818 9.61 24.5258 9.61C24.3698 9.61 24.2258 9.648 24.0938 9.724C23.9618 9.8 23.8538 9.912 23.7698 10.06C23.6898 10.204 23.6498 10.376 23.6498 10.576C23.6498 10.776 23.6898 10.952 23.7698 11.104C23.8538 11.252 23.9618 11.366 24.0938 11.446C24.2298 11.526 24.3738 11.566 24.5258 11.566C24.6818 11.566 24.8278 11.528 24.9638 11.452C25.0998 11.372 25.2078 11.26 25.2878 11.116C25.3678 10.968 25.4078 10.792 25.4078 10.588ZM27.9142 9.442C28.0222 9.266 28.1622 9.128 28.3342 9.028C28.5102 8.928 28.7102 8.878 28.9342 8.878V9.76H28.7122C28.4482 9.76 28.2482 9.822 28.1122 9.946C27.9802 10.07 27.9142 10.286 27.9142 10.594V12.25H27.0742V8.926H27.9142V9.442Z" fill="url(#paint1_linear_807_7995)"/>
<defs>
<linearGradient id="paint0_linear_807_7995" x1="12.075" y1="12.74" x2="-6.0973" y2="8.97055" gradientUnits="userSpaceOnUse">
<stop stop-color="#65BAB1"/>
<stop offset="1" stop-color="#417DD9"/>
</linearGradient>
<linearGradient id="paint1_linear_807_7995" x1="30.0556" y1="21.35" x2="15.8273" y2="-10.0487" gradientUnits="userSpaceOnUse">
<stop stop-color="#65BAB1"/>
<stop offset="1" stop-color="#417DD9"/>
</linearGradient>
</defs>
</svg>
