<svg width="10" height="12" viewBox="0 0 9 14" fill="none" xmlns="http://www.w3.org/2000/svg">
<path fill-rule="evenodd" clip-rule="evenodd" d="M2.5 1.5C2.5 0.947715 2.05228 0.5 1.5 0.5C0.947715 0.5 0.5 0.947715 0.5 1.5V12.25C0.5 12.8023 0.947715 13.25 1.5 13.25H7.75C8.30228 13.25 8.75 12.8023 8.75 12.25C8.75 11.6977 8.30228 11.25 7.75 11.25H2.5V1.5ZM3.5 1.74999C3.22386 1.74999 3 1.97385 3 2.24999C3 2.52613 3.22386 2.74999 3.5 2.74999H5.5C5.77614 2.74999 6 2.52613 6 2.24999C6 1.97385 5.77614 1.74999 5.5 1.74999H3.5ZM3 8.24999C3 7.97385 3.22386 7.74999 3.5 7.74999H6.5C6.77614 7.74999 7 7.97385 7 8.24999C7 8.52613 6.77614 8.74999 6.5 8.74999H3.5C3.22386 8.74999 3 8.52613 3 8.24999ZM3.5 3.74999C3.22386 3.74999 3 3.97385 3 4.24999C3 4.52613 3.22386 4.74999 3.5 4.74999H6.5C6.77614 4.74999 7 4.52613 7 4.24999C7 3.97385 6.77614 3.74999 6.5 3.74999H3.5ZM3 10.25C3 9.97385 3.22386 9.74999 3.5 9.74999H5.5C5.77614 9.74999 6 9.97385 6 10.25C6 10.5261 5.77614 10.75 5.5 10.75H3.5C3.22386 10.75 3 10.5261 3 10.25ZM3.5 5.74999C3.22386 5.74999 3 5.97385 3 6.24999C3 6.52613 3.22386 6.74999 3.5 6.74999H5.5C5.77614 6.74999 6 6.52613 6 6.24999C6 5.97385 5.77614 5.74999 5.5 5.74999H3.5Z" fill="url(#paint0_linear_807_7969)"/>
<defs>
<linearGradient id="paint0_linear_807_7969" x1="12.325" y1="12.74" x2="-5.8473" y2="8.97055" gradientUnits="userSpaceOnUse">
<stop stop-color="#65BAB1"/>
<stop offset="1" stop-color="#417DD9"/>
</linearGradient>
</defs>
</svg>
