<svg width="40" height="41" viewBox="0 0 40 41" fill="none" xmlns="http://www.w3.org/2000/svg">
<path d="M0.853641 19.915C0.852703 23.302 1.7377 26.6092 3.42052 29.5242L0.692703 39.4839L10.8852 36.8114C13.7043 38.3461 16.8629 39.1503 20.0727 39.1505H20.0811C30.6772 39.1505 39.3027 30.5281 39.3072 19.9302C39.3093 14.7947 37.3111 9.96564 33.6808 6.33251C30.0511 2.6997 25.2238 0.697982 20.0804 0.695638C9.48302 0.695638 0.858172 9.31751 0.853797 19.915" fill="url(#paint0_linear_353_1618)"/>
<path d="M0.167188 19.9088C0.166094 23.4177 1.08281 26.8431 2.82562 29.8625L0 40.1792L10.558 37.4109C13.467 38.997 16.7423 39.8333 20.0752 39.8345H20.0837C31.06 39.8345 39.9953 30.902 40 19.9247C40.0019 14.6047 37.9319 9.60203 34.1719 5.83875C30.4114 2.07594 25.4114 0.0021875 20.0837 0C9.10562 0 0.171563 8.93125 0.167188 19.9088ZM6.45469 29.3425L6.06047 28.7167C4.40328 26.0817 3.52859 23.0367 3.52984 19.91C3.53344 10.7858 10.9591 3.3625 20.09 3.3625C24.5119 3.36438 28.6675 5.08813 31.7931 8.21563C34.9186 11.3434 36.6384 15.5013 36.6373 19.9234C36.6333 29.0477 29.2075 36.4719 20.0837 36.4719H20.0772C17.1064 36.4703 14.1928 35.6725 11.6519 34.1648L11.0472 33.8063L4.78188 35.4489L6.45469 29.3423V29.3425Z" fill="url(#paint1_linear_353_1618)"/>
<path d="M15.1059 11.5856C14.7331 10.757 14.3407 10.7403 13.9862 10.7258C13.6959 10.7133 13.364 10.7142 13.0324 10.7142C12.7006 10.7142 12.1614 10.8391 11.7056 11.3367C11.2493 11.8348 9.9637 13.0386 9.9637 15.4869C9.9637 17.9353 11.747 20.3014 11.9956 20.6337C12.2445 20.9655 15.4382 26.1505 20.4964 28.1451C24.7001 29.8028 25.5556 29.4731 26.4679 29.39C27.3804 29.3072 29.4123 28.1866 29.8268 27.0245C30.2417 25.8626 30.2417 24.8667 30.1173 24.6586C29.9929 24.4512 29.661 24.3267 29.1634 24.078C28.6656 23.8291 26.219 22.6251 25.7629 22.4591C25.3067 22.2931 24.9749 22.2103 24.6431 22.7086C24.3112 23.2061 23.3582 24.3267 23.0678 24.6586C22.7776 24.9912 22.4871 25.0326 21.9896 24.7837C21.4917 24.5341 19.889 24.0092 17.9876 22.3141C16.5082 20.995 15.5095 19.3661 15.2192 18.8678C14.9289 18.3703 15.1881 18.1006 15.4376 17.8526C15.6612 17.6297 15.9354 17.2716 16.1845 16.9811C16.4326 16.6905 16.5154 16.4831 16.6814 16.1512C16.8474 15.8191 16.7643 15.5284 16.6401 15.2795C16.5154 15.0306 15.5484 12.5695 15.1059 11.5856Z" fill="white"/>
<defs>
<linearGradient id="paint0_linear_353_1618" x1="1931.42" y1="3879.52" x2="1931.42" y2="0.695638" gradientUnits="userSpaceOnUse">
<stop stop-color="#1FAF38"/>
<stop offset="1" stop-color="#60D669"/>
</linearGradient>
<linearGradient id="paint1_linear_353_1618" x1="2000" y1="4017.92" x2="2000" y2="0" gradientUnits="userSpaceOnUse">
<stop stop-color="#F9F9F9"/>
<stop offset="1" stop-color="white"/>
</linearGradient>
</defs>
</svg>
